<svg width="456" height="97" viewBox="0 0 456 97" fill="none" xmlns="http://www.w3.org/2000/svg">
<path d="M61.6818 28.9545C61.8333 25.1667 60.7273 22.2424 58.3636 20.1818C56.0303 18.1212 52.5 17.0909 47.7727 17.0909C44.5606 17.0909 41.7727 17.5455 39.4091 18.4545C37.0455 19.3333 35.1515 20.5606 33.7273 22.1364C32.3333 23.6818 31.4697 25.4697 31.1364 27.5C30.803 29.1667 30.9091 30.6212 31.4545 31.8636C32.0303 33.1061 32.9242 34.1818 34.1364 35.0909C35.3788 35.9697 36.8485 36.7424 38.5455 37.4091C40.2424 38.0455 42.0455 38.5909 43.9545 39.0455L51.9545 41.0455C55.8636 41.9545 59.3788 43.1667 62.5 44.6818C65.6515 46.197 68.2879 48.0606 70.4091 50.2727C72.5606 52.4848 74.0758 55.0909 74.9545 58.0909C75.8333 61.0909 75.9545 64.5303 75.3182 68.4091C74.3485 74.1061 72.0909 79.0455 68.5455 83.2273C65 87.3788 60.3485 90.6061 54.5909 92.9091C48.8333 95.1818 42.1667 96.3182 34.5909 96.3182C27.0758 96.3182 20.7273 95.1667 15.5455 92.8636C10.3636 90.5606 6.59091 87.1515 4.22727 82.6364C1.89394 78.0909 1.19697 72.4697 2.13636 65.7727H21.1818C20.8485 68.8939 21.303 71.5 22.5455 73.5909C23.8182 75.6515 25.7121 77.2121 28.2273 78.2727C30.7424 79.303 33.697 79.8182 37.0909 79.8182C40.4545 79.8182 43.4394 79.3333 46.0455 78.3636C48.6818 77.3939 50.8182 76.0455 52.4545 74.3182C54.0909 72.5909 55.0909 70.6061 55.4545 68.3636C55.8182 66.2727 55.5 64.5152 54.5 63.0909C53.5 61.6667 51.8939 60.4545 49.6818 59.4545C47.5 58.4242 44.7879 57.5151 41.5455 56.7273L31.8182 54.1818C24.303 52.2727 18.6212 49.2879 14.7727 45.2273C10.9242 41.1667 9.54545 35.697 10.6364 28.8182C11.6061 23.1818 13.9545 18.2576 17.6818 14.0455C21.4394 9.80303 26.1667 6.51515 31.8636 4.18182C37.5909 1.81818 43.8485 0.63636 50.6364 0.63636C57.5455 0.63636 63.3788 1.83333 68.1364 4.22727C72.8939 6.59091 76.3636 9.89394 78.5455 14.1364C80.7273 18.3788 81.3939 23.3182 80.5455 28.9545H61.6818ZM119.284 1.90909L103.83 95H84.1477L99.6023 1.90909H119.284ZM181.432 28.9545C181.583 25.1667 180.477 22.2424 178.114 20.1818C175.78 18.1212 172.25 17.0909 167.523 17.0909C164.311 17.0909 161.523 17.5455 159.159 18.4545C156.795 19.3333 154.902 20.5606 153.477 22.1364C152.083 23.6818 151.22 25.4697 150.886 27.5C150.553 29.1667 150.659 30.6212 151.205 31.8636C151.78 33.1061 152.674 34.1818 153.886 35.0909C155.129 35.9697 156.598 36.7424 158.295 37.4091C159.992 38.0455 161.795 38.5909 163.705 39.0455L171.705 41.0455C175.614 41.9545 179.129 43.1667 182.25 44.6818C185.402 46.197 188.038 48.0606 190.159 50.2727C192.311 52.4848 193.826 55.0909 194.705 58.0909C195.583 61.0909 195.705 64.5303 195.068 68.4091C194.098 74.1061 191.841 79.0455 188.295 83.2273C184.75 87.3788 180.098 90.6061 174.341 92.9091C168.583 95.1818 161.917 96.3182 154.341 96.3182C146.826 96.3182 140.477 95.1667 135.295 92.8636C130.114 90.5606 126.341 87.1515 123.977 82.6364C121.644 78.0909 120.947 72.4697 121.886 65.7727H140.932C140.598 68.8939 141.053 71.5 142.295 73.5909C143.568 75.6515 145.462 77.2121 147.977 78.2727C150.492 79.303 153.447 79.8182 156.841 79.8182C160.205 79.8182 163.189 79.3333 165.795 78.3636C168.432 77.3939 170.568 76.0455 172.205 74.3182C173.841 72.5909 174.841 70.6061 175.205 68.3636C175.568 66.2727 175.25 64.5152 174.25 63.0909C173.25 61.6667 171.644 60.4545 169.432 59.4545C167.25 58.4242 164.538 57.5151 161.295 56.7273L151.568 54.1818C144.053 52.2727 138.371 49.2879 134.523 45.2273C130.674 41.1667 129.295 35.697 130.386 28.8182C131.356 23.1818 133.705 18.2576 137.432 14.0455C141.189 9.80303 145.917 6.51515 151.614 4.18182C157.341 1.81818 163.598 0.63636 170.386 0.63636C177.295 0.63636 183.129 1.83333 187.886 4.22727C192.644 6.59091 196.114 9.89394 198.295 14.1364C200.477 18.3788 201.144 23.3182 200.295 28.9545H181.432ZM203.898 95L219.352 1.90909H239.034L226.307 78.7727H266.216L263.489 95H203.898ZM294.943 95H273.852L321.443 1.90909H346.807L363.443 95H342.352L331.034 23.1818H330.307L294.943 95ZM299.761 58.4091H349.58L346.943 73.7727H297.125L299.761 58.4091ZM374.648 95L390.102 1.90909H427.375C434.223 1.90909 439.769 2.92424 444.011 4.95454C448.284 6.98485 451.269 9.80303 452.966 13.4091C454.663 16.9848 455.117 21.1061 454.33 25.7727C453.693 29.4091 452.405 32.5909 450.466 35.3182C448.557 38.0455 446.193 40.2879 443.375 42.0455C440.557 43.803 437.496 45.0455 434.193 45.7727L434.011 46.6818C437.527 46.8333 440.693 47.8333 443.511 49.6818C446.33 51.5 448.436 54.0758 449.83 57.4091C451.223 60.7424 451.542 64.697 450.784 69.2727C449.966 74.2121 448.011 78.6212 444.92 82.5C441.83 86.3485 437.708 89.3939 432.557 91.6364C427.436 93.8788 421.39 95 414.42 95H374.648ZM397.057 78.9091H413.102C418.557 78.9091 422.723 77.8485 425.602 75.7273C428.481 73.6061 430.208 70.803 430.784 67.3182C431.178 64.7424 430.92 62.4697 430.011 60.5C429.133 58.5303 427.633 56.9848 425.511 55.8636C423.42 54.7424 420.769 54.1818 417.557 54.1818H401.102L397.057 78.9091ZM403.375 40.8636H417.966C420.633 40.8636 423.102 40.3939 425.375 39.4545C427.678 38.4848 429.572 37.1212 431.057 35.3636C432.572 33.5758 433.527 31.4697 433.92 29.0455C434.466 25.6515 433.708 22.9394 431.648 20.9091C429.617 18.8485 426.436 17.8182 422.102 17.8182H407.193L403.375 40.8636Z" fill="white"/>
</svg>
